<?xml version="1.0" standalone="no"?><!DOCTYPE svg PUBLIC "-//W3C//DTD SVG 1.1//EN" "http://www.w3.org/Graphics/SVG/1.1/DTD/svg11.dtd"><svg t="1567994177937" class="icon" viewBox="0 0 1024 1024" version="1.1" xmlns="http://www.w3.org/2000/svg" p-id="2213" xmlns:xlink="http://www.w3.org/1999/xlink" width="200" height="200"><defs><style type="text/css"></style></defs><path d="M463.616 609.984a192 192 0 0 0 58.432-39.936l392.128-392.128a48 48 0 0 0-67.904-67.84L454.208 502.144a192 192 0 0 0-40 58.432l-38.848 88.256 88.32-38.848z m495.808-386.816L567.36 615.296a256 256 0 0 1-77.952 53.248l-163.584 72a32 32 0 0 1-42.176-42.176l72-163.584A256 256 0 0 1 408.96 456.96l392.064-392.064a112 112 0 1 1 158.4 158.336zM496 48a32 32 0 0 1 0 64h-384v800h800V528.32a32 32 0 1 1 64 0v383.68a64 64 0 0 1-64 64H112a64 64 0 0 1-64-64V112a64 64 0 0 1 64-64h384z" p-id="2214"></path></svg>